ffmpeg started on 2026-03-28 at 15:47:32
Report written to "D:\Convert\FFMetrics\reports\ssim_report-6.txt"
Log level: 32
Command line:
ffmpeg -hide_banner -nostdin -r 24000/1001 -i "F:\\\xc0\xed\xe8\xec\xe5\\\xce\xed\xe3\xee\xe8\xed\xe3\xe8\\!_40_\xce\xf1\xe5\xed\xfc_2025\\JamClub\\\xcc\xeb\xe0\xe4\xf8\xe0\xff \xf1\xe5\xf1\xf2\xf0\xe0 \xec\xee\xe5\xe3\xee \xe4\xf0\xf3\xe3\xe0 \xe4\xee\xf1\xe0\xe6\xe4\xe0\xe5\xf2\\JamClub_Tomodachi_no_Imouto_ga_Ore_ni_dake_Uzai_01_1080p_HEVC.mkv" -r 24000/1001 -i "F:\\\xc0\xed\xe8\xec\xe5\\\xce\xed\xe3\xee\xe8\xed\xe3\xe8\\!_40_\xce\xf1\xe5\xed\xfc_2025\\JamClub\\\xcc\xeb\xe0\xe4\xf8\xe0\xff \xf1\xe5\xf1\xf2\xf0\xe0 \xec\xee\xe5\xe3\xee \xe4\xf0\xf3\xe3\xe0 \xe4\xee\xf1\xe0\xe6\xe4\xe0\xe5\xf2\\JamClub_Tomodachi_no_Imouto_ga_Ore_ni_dake_Uzai_01_1080p.mp4" -lavfi "[0:v]settb=AVTB,setpts=PTS-STARTPTS,format=pix_fmts=yuv420p10le,fps=24000/1001,scale=1920:1080:flags=lanczos:param0=3:out_range=limited:out_color_matrix=bt709:out_chroma_loc=left,setsar=1/1,setdar=(1920/1080)*(1/1),colorspace=format=yuv420p10:range=tv:primaries=bt709:trc=bt709:space=bt709:fast=0[main];[1:v]settb=AVTB,setpts=PTS-STARTPTS,format=pix_fmts=yuv420p,fps=24000/1001,scale=1920:1080:flags=lanczos:param0=3:out_range=limited:out_color_matrix=bt709:out_chroma_loc=left,setsar=1/1,setdar=(1920/1080)*(1/1),colorspace=format=yuv420p:range=tv:primaries=bt709:trc=bt709:space=bt709:fast=0[ref];[main][ref]ssim=eof_action=endall:stats_file='D\\:/Convert/FFMetrics/logs/ssim_logfile-6.txt'" -f null -
Input #0, matroska,webm, from 'F:\Аниме\Онгоинги\!_40_Осень_2025\JamClub\Младшая сестра моего друга досаждает\JamClub_Tomodachi_no_Imouto_ga_Ore_ni_dake_Uzai_01_1080p_HEVC.mkv':
  Metadata:
    COMPATIBLE_BRANDS: isomiso2avc1mp41
    MAJOR_BRAND     : isom
    MINOR_VERSION   : 512
    ENCODER         : Lavf61.7.100
  Duration: 00:23:49.40, start: -0.021000, bitrate: 985 kb/s
  Stream #0:0: Video: hevc (Main 10), yuv420p10le(tv, bt709, progressive), 1920x1080 [SAR 1:1 DAR 16:9], 23.98 fps, 23.98 tbr, 1k tbn (default)
      Metadata:
        HANDLER_NAME    : VideoHandler
        VENDOR_ID       : [0][0][0][0]
        ENCODER         : Lavc61.19.100 libx265
        BPS             : 790700
        DURATION        : 00:23:49.302708333
        NUMBER_OF_FRAMES: 34269
        NUMBER_OF_BYTES : 141268753
        _STATISTICS_WRITING_APP: mkvpropedit v94.0 ('Initiate') 64-bit
        _STATISTICS_WRITING_DATE_UTC: 2026-03-28 09:40:31
        _STATISTICS_TAGS: BPS DURATION NUMBER_OF_FRAMES NUMBER_OF_BYTES
  Stream #0:1(eng): Audio: aac (LC), 48000 Hz, stereo, fltp (default)
      Metadata:
        HANDLER_NAME    : SoundHandler
        VENDOR_ID       : [0][0][0][0]
        ENCODER         : Lavc61.19.100 aac
        BPS             : 191269
        DURATION        : 00:23:49.379000000
        NUMBER_OF_FRAMES: 67003
        NUMBER_OF_BYTES : 34174556
        _STATISTICS_WRITING_APP: mkvpropedit v94.0 ('Initiate') 64-bit
        _STATISTICS_WRITING_DATE_UTC: 2026-03-28 09:40:31
        _STATISTICS_TAGS: BPS DURATION NUMBER_OF_FRAMES NUMBER_OF_BYTES
Input #1, mov,mp4,m4a,3gp,3g2,mj2, from 'F:\Аниме\Онгоинги\!_40_Осень_2025\JamClub\Младшая сестра моего друга досаждает\JamClub_Tomodachi_no_Imouto_ga_Ore_ni_dake_Uzai_01_1080p.mp4':
  Metadata:
    major_brand     : isom
    minor_version   : 512
    compatible_brands: isomiso2avc1mp41
    encoder         : Lavf60.16.100
  Duration: 00:23:49.38, start: 0.000000, bitrate: 3202 kb/s
  Stream #1:0[0x1](und): Video: h264 (High) (avc1 / 0x31637661), yuv420p(tv, bt709, progressive), 1920x1080 [SAR 1:1 DAR 16:9], 3004 kb/s, 23.98 fps, 23.98 tbr, 90k tbn (default)
      Metadata:
        handler_name    : VideoHandler
        vendor_id       : [0][0][0][0]
  Stream #1:1[0x2](eng): Audio: aac (LC) (mp4a / 0x6134706D), 48000 Hz, stereo, fltp, 191 kb/s (default)
      Metadata:
        handler_name    : SoundHandler
        vendor_id       : [0][0][0][0]
Stream mapping:
  Stream #0:0 (hevc) -> settb:default
  Stream #1:0 (h264) -> settb:default
  ssim:default -> Stream #0:0 (wrapped_avframe)
  Stream #0:1 -> #0:1 (aac (native) -> pcm_s16le (native))
Output #0, null, to 'pipe:':
  Metadata:
    COMPATIBLE_BRANDS: isomiso2avc1mp41
    MAJOR_BRAND     : isom
    MINOR_VERSION   : 512
    encoder         : Lavf61.7.100
  Stream #0:0: Video: wrapped_avframe, yuv420p10le(tv, bt709, progressive), 1920x1080 [SAR 1:1 DAR 16:9], q=2-31, 200 kb/s, 23.98 fps, 23.98 tbn
      Metadata:
        encoder         : Lavc61.19.100 wrapped_avframe
  Stream #0:1(eng): Audio: pcm_s16le, 48000 Hz, stereo, s16, 1536 kb/s (default)
      Metadata:
        HANDLER_NAME    : SoundHandler
        VENDOR_ID       : [0][0][0][0]
        _STATISTICS_TAGS: BPS DURATION NUMBER_OF_FRAMES NUMBER_OF_BYTES
        BPS             : 191269
        DURATION        : 00:23:49.379000000
        NUMBER_OF_FRAMES: 67003
        NUMBER_OF_BYTES : 34174556
        _STATISTICS_WRITING_APP: mkvpropedit v94.0 ('Initiate') 64-bit
        _STATISTICS_WRITING_DATE_UTC: 2026-03-28 09:40:31
        encoder         : Lavc61.19.100 pcm_s16le
frame=  104 fps=0.0 q=-0.0 size=N/A time=00:00:04.33 bitrate=N/A speed=8.28x    frame=  244 fps=236 q=-0.0 size=N/A time=00:00:10.17 bitrate=N/A speed=9.85x    frame=  403 fps=261 q=-0.0 size=N/A time=00:00:16.80 bitrate=N/A speed=10.9x    frame=  587 fps=284 q=-0.0 size=N/A time=00:00:24.48 bitrate=N/A speed=11.8x    frame=  768 fps=298 q=-0.0 size=N/A time=00:00:32.03 bitrate=N/A speed=12.4x    frame=  958 fps=310 q=-0.0 size=N/A time=00:00:39.95 bitrate=N/A speed=12.9x    frame= 1154 fps=319 q=-0.0 size=N/A time=00:00:48.13 bitrate=N/A speed=13.3x    frame= 1335 fps=323 q=-0.0 size=N/A time=00:00:55.68 bitrate=N/A speed=13.5x    frame= 1525 fps=328 q=-0.0 size=N/A time=00:01:03.60 bitrate=N/A speed=13.7x    frame= 1715 fps=332 q=-0.0 size=N/A time=00:01:11.52 bitrate=N/A speed=13.8x    frame= 1902 fps=335 q=-0.0 size=N/A time=00:01:19.32 bitrate=N/A speed=  14x    frame= 2088 fps=337 q=-0.0 size=N/A time=00:01:27.08 bitrate=N/A speed=14.1x    frame= 2276 fps=339 q=-0.0 size=N/A time=00:01:34.92 bitrate=N/A speed=14.2x    frame= 2467 fps=341 q=-0.0 size=N/A time=00:01:42.89 bitrate=N/A speed=14.2x    frame= 2651 fps=342 q=-0.0 size=N/A time=00:01:50.56 bitrate=N/A speed=14.3x    frame= 2840 fps=344 q=-0.0 size=N/A time=00:01:58.45 bitrate=N/A speed=14.3x    frame= 3020 fps=344 q=-0.0 size=N/A time=00:02:05.95 bitrate=N/A speed=14.4x    frame= 3210 fps=345 q=-0.0 size=N/A time=00:02:13.88 bitrate=N/A speed=14.4x    frame= 3398 fps=346 q=-0.0 size=N/A time=00:02:21.72 bitrate=N/A speed=14.4x    frame= 3584 fps=347 q=-0.0 size=N/A time=00:02:29.48 bitrate=N/A speed=14.5x    frame= 3761 fps=347 q=-0.0 size=N/A time=00:02:36.86 bitrate=N/A speed=14.5x    frame= 3947 fps=347 q=-0.0 size=N/A time=00:02:44.62 bitrate=N/A speed=14.5x    frame= 4134 fps=348 q=-0.0 size=N/A time=00:02:52.42 bitrate=N/A speed=14.5x    frame= 4311 fps=348 q=-0.0 size=N/A time=00:02:59.80 bitrate=N/A speed=14.5x    frame= 4498 fps=348 q=-0.0 size=N/A time=00:03:07.60 bitrate=N/A speed=14.5x    frame= 4682 fps=349 q=-0.0 size=N/A time=00:03:15.27 bitrate=N/A speed=14.6x    frame= 4883 fps=350 q=-0.0 size=N/A time=00:03:23.66 bitrate=N/A speed=14.6x    frame= 5071 fps=351 q=-0.0 size=N/A time=00:03:31.50 bitrate=N/A speed=14.6x    frame= 5260 fps=351 q=-0.0 size=N/A time=00:03:39.38 bitrate=N/A speed=14.7x    frame= 5448 fps=352 q=-0.0 size=N/A time=00:03:47.22 bitrate=N/A speed=14.7x    frame= 5644 fps=352 q=-0.0 size=N/A time=00:03:55.40 bitrate=N/A speed=14.7x    frame= 5832 fps=353 q=-0.0 size=N/A time=00:04:03.24 bitrate=N/A speed=14.7x    frame= 5997 fps=352 q=-0.0 size=N/A time=00:04:10.12 bitrate=N/A speed=14.7x    frame= 6135 fps=350 q=-0.0 size=N/A time=00:04:15.88 bitrate=N/A speed=14.6x    frame= 6303 fps=349 q=-0.0 size=N/A time=00:04:22.88 bitrate=N/A speed=14.5x    frame= 6457 fps=347 q=-0.0 size=N/A time=00:04:29.31 bitrate=N/A speed=14.5x    frame= 6634 fps=347 q=-0.0 size=N/A time=00:04:36.69 bitrate=N/A speed=14.5x    frame= 6788 fps=346 q=-0.0 size=N/A time=00:04:43.11 bitrate=N/A speed=14.4x    frame= 6967 fps=346 q=-0.0 size=N/A time=00:04:50.58 bitrate=N/A speed=14.4x    frame= 7130 fps=345 q=-0.0 size=N/A time=00:04:57.38 bitrate=N/A speed=14.4x    frame= 7297 fps=345 q=-0.0 size=N/A time=00:05:04.34 bitrate=N/A speed=14.4x    frame= 7428 fps=343 q=-0.0 size=N/A time=00:05:09.80 bitrate=N/A speed=14.3x    frame= 7566 fps=341 q=-0.0 size=N/A time=00:05:15.56 bitrate=N/A speed=14.2x    frame= 7721 fps=340 q=-0.0 size=N/A time=00:05:22.03 bitrate=N/A speed=14.2x    frame= 7877 fps=339 q=-0.0 size=N/A time=00:05:28.53 bitrate=N/A speed=14.1x    frame= 8029 fps=338 q=-0.0 size=N/A time=00:05:34.87 bitrate=N/A speed=14.1x    frame= 8213 fps=339 q=-0.0 size=N/A time=00:05:42.55 bitrate=N/A speed=14.1x    frame= 8403 fps=339 q=-0.0 size=N/A time=00:05:50.47 bitrate=N/A speed=14.1x    frame= 8593 fps=340 q=-0.0 size=N/A time=00:05:58.39 bitrate=N/A speed=14.2x    frame= 8772 fps=340 q=-0.0 size=N/A time=00:06:05.86 bitrate=N/A speed=14.2x    frame= 8967 fps=341 q=-0.0 size=N/A time=00:06:13.99 bitrate=N/A speed=14.2x    frame= 9155 fps=341 q=-0.0 size=N/A time=00:06:21.83 bitrate=N/A speed=14.2x    frame= 9344 fps=342 q=-0.0 size=N/A time=00:06:29.72 bitrate=N/A speed=14.3x    frame= 9525 fps=342 q=-0.0 size=N/A time=00:06:37.27 bitrate=N/A speed=14.3x    frame= 9705 fps=342 q=-0.0 size=N/A time=00:06:44.77 bitrate=N/A speed=14.3x    frame= 9893 fps=342 q=-0.0 size=N/A time=00:06:52.62 bitrate=N/A speed=14.3x    frame=10082 fps=343 q=-0.0 size=N/A time=00:07:00.50 bitrate=N/A speed=14.3x    frame=10272 fps=343 q=-0.0 size=N/A time=00:07:08.42 bitrate=N/A speed=14.3x    frame=10454 fps=343 q=-0.0 size=N/A time=00:07:16.01 bitrate=N/A speed=14.3x    frame=10642 fps=344 q=-0.0 size=N/A time=00:07:23.86 bitrate=N/A speed=14.3x    frame=10830 fps=344 q=-0.0 size=N/A time=00:07:31.70 bitrate=N/A speed=14.3x    frame=11016 fps=344 q=-0.0 size=N/A time=00:07:39.45 bitrate=N/A speed=14.4x    frame=11207 fps=345 q=-0.0 size=N/A time=00:07:47.42 bitrate=N/A speed=14.4x    frame=11393 fps=345 q=-0.0 size=N/A time=00:07:55.18 bitrate=N/A speed=14.4x    frame=11590 fps=346 q=-0.0 size=N/A time=00:08:03.39 bitrate=N/A speed=14.4x    frame=11778 fps=346 q=-0.0 size=N/A time=00:08:11.24 bitrate=N/A speed=14.4x    frame=11965 fps=346 q=-0.0 size=N/A time=00:08:19.04 bitrate=N/A speed=14.4x    frame=12151 fps=346 q=-0.0 size=N/A time=00:08:26.79 bitrate=N/A speed=14.4x    frame=12328 fps=346 q=-0.0 size=N/A time=00:08:34.18 bitrate=N/A speed=14.4x    frame=12522 fps=347 q=-0.0 size=N/A time=00:08:42.27 bitrate=N/A speed=14.5x    frame=12712 fps=347 q=-0.0 size=N/A time=00:08:50.19 bitrate=N/A speed=14.5x    frame=12894 fps=347 q=-0.0 size=N/A time=00:08:57.78 bitrate=N/A speed=14.5x    frame=13090 fps=348 q=-0.0 size=N/A time=00:09:05.96 bitrate=N/A speed=14.5x    frame=13265 fps=347 q=-0.0 size=N/A time=00:09:13.26 bitrate=N/A speed=14.5x    frame=13457 fps=348 q=-0.0 size=N/A time=00:09:21.26 bitrate=N/A speed=14.5x    frame=13639 fps=348 q=-0.0 size=N/A time=00:09:28.85 bitrate=N/A speed=14.5x    frame=13840 fps=348 q=-0.0 size=N/A time=00:09:37.24 bitrate=N/A speed=14.5x    frame=14030 fps=349 q=-0.0 size=N/A time=00:09:45.16 bitrate=N/A speed=14.5x    frame=14218 fps=349 q=-0.0 size=N/A time=00:09:53.00 bitrate=N/A speed=14.6x    frame=14401 fps=349 q=-0.0 size=N/A time=00:10:00.64 bitrate=N/A speed=14.6x    frame=14586 fps=349 q=-0.0 size=N/A time=00:10:08.35 bitrate=N/A speed=14.6x    frame=14765 fps=349 q=-0.0 size=N/A time=00:10:15.82 bitrate=N/A speed=14.6x    frame=14956 fps=349 q=-0.0 size=N/A time=00:10:23.78 bitrate=N/A speed=14.6x    frame=15147 fps=349 q=-0.0 size=N/A time=00:10:31.75 bitrate=N/A speed=14.6x    frame=15334 fps=350 q=-0.0 size=N/A time=00:10:39.55 bitrate=N/A speed=14.6x    frame=15524 fps=350 q=-0.0 size=N/A time=00:10:47.48 bitrate=N/A speed=14.6x    frame=15708 fps=350 q=-0.0 size=N/A time=00:10:55.15 bitrate=N/A speed=14.6x    frame=15895 fps=350 q=-0.0 size=N/A time=00:11:02.95 bitrate=N/A speed=14.6x    frame=16088 fps=350 q=-0.0 size=N/A time=00:11:11.00 bitrate=N/A speed=14.6x    frame=16276 fps=350 q=-0.0 size=N/A time=00:11:18.84 bitrate=N/A speed=14.6x    frame=16464 fps=351 q=-0.0 size=N/A time=00:11:26.68 bitrate=N/A speed=14.6x    frame=16655 fps=351 q=-0.0 size=N/A time=00:11:34.65 bitrate=N/A speed=14.6x    frame=16839 fps=351 q=-0.0 size=N/A time=00:11:42.32 bitrate=N/A speed=14.6x    frame=17021 fps=351 q=-0.0 size=N/A time=00:11:49.91 bitrate=N/A speed=14.6x    frame=17210 fps=351 q=-0.0 size=N/A time=00:11:57.80 bitrate=N/A speed=14.6x    frame=17401 fps=351 q=-0.0 size=N/A time=00:12:05.76 bitrate=N/A speed=14.7x    frame=17583 fps=351 q=-0.0 size=N/A time=00:12:13.35 bitrate=N/A speed=14.7x    frame=17779 fps=352 q=-0.0 size=N/A time=00:12:21.53 bitrate=N/A speed=14.7x    frame=17967 fps=352 q=-0.0 size=N/A time=00:12:29.37 bitrate=N/A speed=14.7x    frame=18150 fps=352 q=-0.0 size=N/A time=00:12:37.00 bitrate=N/A speed=14.7x    frame=18332 fps=352 q=-0.0 size=N/A time=00:12:44.59 bitrate=N/A speed=14.7x    frame=18523 fps=352 q=-0.0 size=N/A time=00:12:52.56 bitrate=N/A speed=14.7x    frame=18703 fps=352 q=-0.0 size=N/A time=00:13:00.07 bitrate=N/A speed=14.7x    frame=18890 fps=352 q=-0.0 size=N/A time=00:13:07.87 bitrate=N/A speed=14.7x    frame=19077 fps=352 q=-0.0 size=N/A time=00:13:15.66 bitrate=N/A speed=14.7x    frame=19265 fps=352 q=-0.0 size=N/A time=00:13:23.51 bitrate=N/A speed=14.7x    frame=19453 fps=352 q=-0.0 size=N/A time=00:13:31.35 bitrate=N/A speed=14.7x    frame=19629 fps=352 q=-0.0 size=N/A time=00:13:38.69 bitrate=N/A speed=14.7x    frame=19813 fps=352 q=-0.0 size=N/A time=00:13:46.36 bitrate=N/A speed=14.7x    frame=20006 fps=352 q=-0.0 size=N/A time=00:13:54.41 bitrate=N/A speed=14.7x    frame=20189 fps=353 q=-0.0 size=N/A time=00:14:02.04 bitrate=N/A speed=14.7x    frame=20378 fps=353 q=-0.0 size=N/A time=00:14:09.93 bitrate=N/A speed=14.7x    frame=20564 fps=353 q=-0.0 size=N/A time=00:14:17.69 bitrate=N/A speed=14.7x    frame=20754 fps=353 q=-0.0 size=N/A time=00:14:25.61 bitrate=N/A speed=14.7x    frame=20943 fps=353 q=-0.0 size=N/A time=00:14:33.49 bitrate=N/A speed=14.7x    frame=21100 fps=353 q=-0.0 size=N/A time=00:14:40.04 bitrate=N/A speed=14.7x    frame=21264 fps=352 q=-0.0 size=N/A time=00:14:46.88 bitrate=N/A speed=14.7x    frame=21448 fps=352 q=-0.0 size=N/A time=00:14:54.56 bitrate=N/A speed=14.7x    frame=21629 fps=352 q=-0.0 size=N/A time=00:15:02.10 bitrate=N/A speed=14.7x    frame=21817 fps=352 q=-0.0 size=N/A time=00:15:09.95 bitrate=N/A speed=14.7x    frame=22003 fps=352 q=-0.0 size=N/A time=00:15:17.70 bitrate=N/A speed=14.7x    frame=22192 fps=353 q=-0.0 size=N/A time=00:15:25.59 bitrate=N/A speed=14.7x    frame=22383 fps=353 q=-0.0 size=N/A time=00:15:33.55 bitrate=N/A speed=14.7x    frame=22566 fps=353 q=-0.0 size=N/A time=00:15:41.19 bitrate=N/A speed=14.7x    frame=22750 fps=353 q=-0.0 size=N/A time=00:15:48.86 bitrate=N/A speed=14.7x    frame=22946 fps=353 q=-0.0 size=N/A time=00:15:57.03 bitrate=N/A speed=14.7x    frame=23135 fps=353 q=-0.0 size=N/A time=00:16:04.92 bitrate=N/A speed=14.7x    frame=23318 fps=353 q=-0.0 size=N/A time=00:16:12.55 bitrate=N/A speed=14.7x    frame=23514 fps=353 q=-0.0 size=N/A time=00:16:20.72 bitrate=N/A speed=14.7x    frame=23704 fps=353 q=-0.0 size=N/A time=00:16:28.65 bitrate=N/A speed=14.7x    frame=23889 fps=353 q=-0.0 size=N/A time=00:16:36.37 bitrate=N/A speed=14.7x    frame=24074 fps=354 q=-0.0 size=N/A time=00:16:44.08 bitrate=N/A speed=14.7x    frame=24268 fps=354 q=-0.0 size=N/A time=00:16:52.17 bitrate=N/A speed=14.7x    frame=24448 fps=354 q=-0.0 size=N/A time=00:16:59.68 bitrate=N/A speed=14.7x    frame=24634 fps=354 q=-0.0 size=N/A time=00:17:07.44 bitrate=N/A speed=14.8x    frame=24816 fps=354 q=-0.0 size=N/A time=00:17:15.03 bitrate=N/A speed=14.8x    frame=25008 fps=354 q=-0.0 size=N/A time=00:17:23.04 bitrate=N/A speed=14.8x    frame=25196 fps=354 q=-0.0 size=N/A time=00:17:30.88 bitrate=N/A speed=14.8x    frame=25376 fps=354 q=-0.0 size=N/A time=00:17:38.39 bitrate=N/A speed=14.8x    frame=25555 fps=354 q=-0.0 size=N/A time=00:17:45.85 bitrate=N/A speed=14.8x    frame=25748 fps=354 q=-0.0 size=N/A time=00:17:53.90 bitrate=N/A speed=14.8x    frame=25932 fps=354 q=-0.0 size=N/A time=00:18:01.58 bitrate=N/A speed=14.8x    frame=26118 fps=354 q=-0.0 size=N/A time=00:18:09.33 bitrate=N/A speed=14.8x    frame=26308 fps=354 q=-0.0 size=N/A time=00:18:17.26 bitrate=N/A speed=14.8x    frame=26502 fps=354 q=-0.0 size=N/A time=00:18:25.35 bitrate=N/A speed=14.8x    frame=26692 fps=354 q=-0.0 size=N/A time=00:18:33.27 bitrate=N/A speed=14.8x    frame=26876 fps=354 q=-0.0 size=N/A time=00:18:40.95 bitrate=N/A speed=14.8x    frame=27068 fps=355 q=-0.0 size=N/A time=00:18:48.96 bitrate=N/A speed=14.8x    frame=27266 fps=355 q=-0.0 size=N/A time=00:18:57.21 bitrate=N/A speed=14.8x    frame=27450 fps=355 q=-0.0 size=N/A time=00:19:04.89 bitrate=N/A speed=14.8x    frame=27632 fps=355 q=-0.0 size=N/A time=00:19:12.48 bitrate=N/A speed=14.8x    frame=27817 fps=355 q=-0.0 size=N/A time=00:19:20.20 bitrate=N/A speed=14.8x    frame=28004 fps=355 q=-0.0 size=N/A time=00:19:28.00 bitrate=N/A speed=14.8x    frame=28189 fps=355 q=-0.0 size=N/A time=00:19:35.71 bitrate=N/A speed=14.8x    frame=28379 fps=355 q=-0.0 size=N/A time=00:19:43.64 bitrate=N/A speed=14.8x    frame=28569 fps=355 q=-0.0 size=N/A time=00:19:51.56 bitrate=N/A speed=14.8x    frame=28743 fps=355 q=-0.0 size=N/A time=00:19:58.82 bitrate=N/A speed=14.8x    frame=28928 fps=355 q=-0.0 size=N/A time=00:20:06.53 bitrate=N/A speed=14.8x    frame=29121 fps=355 q=-0.0 size=N/A time=00:20:14.58 bitrate=N/A speed=14.8x    frame=29298 fps=355 q=-0.0 size=N/A time=00:20:21.97 bitrate=N/A speed=14.8x    frame=29483 fps=355 q=-0.0 size=N/A time=00:20:29.68 bitrate=N/A speed=14.8x    frame=29671 fps=355 q=-0.0 size=N/A time=00:20:37.52 bitrate=N/A speed=14.8x    frame=29868 fps=355 q=-0.0 size=N/A time=00:20:45.74 bitrate=N/A speed=14.8x    frame=30051 fps=355 q=-0.0 size=N/A time=00:20:53.37 bitrate=N/A speed=14.8x    frame=30243 fps=355 q=-0.0 size=N/A time=00:21:01.38 bitrate=N/A speed=14.8x    frame=30422 fps=355 q=-0.0 size=N/A time=00:21:08.85 bitrate=N/A speed=14.8x    frame=30618 fps=355 q=-0.0 size=N/A time=00:21:17.02 bitrate=N/A speed=14.8x    frame=30805 fps=355 q=-0.0 size=N/A time=00:21:24.82 bitrate=N/A speed=14.8x    frame=30992 fps=356 q=-0.0 size=N/A time=00:21:32.62 bitrate=N/A speed=14.8x    frame=31180 fps=356 q=-0.0 size=N/A time=00:21:40.46 bitrate=N/A speed=14.8x    frame=31369 fps=356 q=-0.0 size=N/A time=00:21:48.34 bitrate=N/A speed=14.8x    frame=31550 fps=356 q=-0.0 size=N/A time=00:21:55.89 bitrate=N/A speed=14.8x    frame=31735 fps=356 q=-0.0 size=N/A time=00:22:03.61 bitrate=N/A speed=14.8x    frame=31927 fps=356 q=-0.0 size=N/A time=00:22:11.62 bitrate=N/A speed=14.8x    frame=32106 fps=356 q=-0.0 size=N/A time=00:22:19.08 bitrate=N/A speed=14.8x    frame=32280 fps=356 q=-0.0 size=N/A time=00:22:26.34 bitrate=N/A speed=14.8x    frame=32459 fps=356 q=-0.0 size=N/A time=00:22:33.81 bitrate=N/A speed=14.8x    frame=32638 fps=355 q=-0.0 size=N/A time=00:22:41.27 bitrate=N/A speed=14.8x    frame=32814 fps=355 q=-0.0 size=N/A time=00:22:48.61 bitrate=N/A speed=14.8x    frame=32994 fps=355 q=-0.0 size=N/A time=00:22:56.12 bitrate=N/A speed=14.8x    frame=33174 fps=355 q=-0.0 size=N/A time=00:23:03.63 bitrate=N/A speed=14.8x    frame=33347 fps=355 q=-0.0 size=N/A time=00:23:10.84 bitrate=N/A speed=14.8x    frame=33522 fps=355 q=-0.0 size=N/A time=00:23:18.14 bitrate=N/A speed=14.8x    frame=33704 fps=355 q=-0.0 size=N/A time=00:23:25.73 bitrate=N/A speed=14.8x    frame=33880 fps=355 q=-0.0 size=N/A time=00:23:33.07 bitrate=N/A speed=14.8x    frame=34045 fps=355 q=-0.0 size=N/A time=00:23:39.96 bitrate=N/A speed=14.8x    frame=34236 fps=355 q=-0.0 size=N/A time=00:23:47.92 bitrate=N/A speed=14.8x    [Parsed_ssim_16 @ 000001894cd2c580] SSIM Y:0.994415 (22.530103) U:0.995525 (23.492008) V:0.995048 (23.052355) All:0.994706 (22.762002)
[out#0/null @ 000001894119ae00] video:14725KiB audio:268012KiB subtitle:0KiB other streams:0KiB global headers:0KiB muxing overhead: unknown
frame=34269 fps=355 q=-0.0 Lsize=N/A time=00:23:49.30 bitrate=N/A speed=14.8x    
